# Blender v2.69 (sub 0) OBJ File: 'cube.blend'
# www.blender.org
o Cube.001
v 1.000000 -1.000000 -1.000000
v 1.000000 -1.000000 1.000000
v -1.000000 -1.000000 -1.000000
v 1.000000 1.000000 -0.999999
v -1.000000 1.000000 -1.000000
v 0.999999 1.000000 1.000001
v -1.000000 -1.000000 1.000000
v -1.000000 1.000000 1.000000
vt 0.000000 0.000000
vt 1.000000 0.000000
vt 0.000000 1.000000
vt 1.000000 1.000000
vn 0.000000 -1.000000 -0.000000
vn -0.000000 1.000000 0.000000
vn 1.000000 0.000000 0.000000
vn 0.000000 -0.000001 1.000000
vn -1.000000 0.000000 0.000000
vn 0.000001 0.000001 -1.000000
vn 1.000000 0.000000 0.000001
vn -0.000000 -0.000000 1.000000
vn 0.000000 0.000000 -1.000000
s off
f 1/1/1 2/2/1 3/3/1
f 4/1/2 5/2/2 6/3/2
f 1/3/3 4/1/3 2/4/3
f 2/3/4 6/1/4 7/4/4
f 7/3/5 8/1/5 3/4/5
f 4/3/6 1/1/6 5/4/6
f 2/2/1 7/4/1 3/3/1
f 5/2/2 8/4/2 6/3/2
f 4/1/7 6/2/7 2/4/7
f 6/1/8 8/2/8 7/4/8
f 8/1/5 5/2/5 3/4/5
f 1/1/9 3/2/9 5/4/9
