# Blender v2.69 (sub 0) OBJ File: 'table.blend'
# www.blender.org
o Cube.002
v -0.900000 -1.000000 0.900000
v -0.900000 -1.000000 0.800000
v -0.800000 -1.000000 0.800000
v -0.800000 -1.000000 0.900000
v -0.900000 1.000000 0.900000
v -0.900000 1.000000 0.800000
v -0.800000 1.000000 0.800000
v -0.800000 1.000000 0.900000
v 1.000000 0.950000 -1.000000
v 1.000000 0.950000 1.000000
v -1.000000 0.950000 1.000000
v -1.000000 0.950000 -1.000000
v 1.000001 1.050000 -0.999999
v 1.000000 1.050000 1.000001
v -1.000000 1.050000 1.000000
v -1.000000 1.050000 -1.000000
v -0.900000 -1.000000 -0.800000
v -0.900000 -1.000000 -0.900000
v -0.800000 -1.000000 -0.900000
v -0.800000 -1.000000 -0.800000
v -0.900000 1.000000 -0.800000
v -0.900000 1.000000 -0.900000
v -0.800000 1.000000 -0.900000
v -0.800000 1.000000 -0.800000
v 0.800000 -1.000000 0.900000
v 0.800000 -1.000000 0.800000
v 0.900000 -1.000000 0.800000
v 0.900000 -1.000000 0.900000
v 0.800000 1.000000 0.900000
v 0.800000 1.000000 0.800000
v 0.900000 1.000000 0.800000
v 0.900000 1.000000 0.900000
v 0.800000 -1.000000 -0.800000
v 0.800000 -1.000000 -0.900000
v 0.900000 -1.000000 -0.900000
v 0.900000 -1.000000 -0.800000
v 0.800000 1.000000 -0.800000
v 0.800000 1.000000 -0.900000
v 0.900000 1.000000 -0.900000
v 0.900000 1.000000 -0.800000
vt 0.000000 0.000000
vt 1.000000 0.000000
vt 0.000000 1.000000
vt 1.000000 1.000000
vn -1.000000 0.000000 0.000000
vn 0.000000 0.000000 -1.000000
vn 1.000000 0.000000 0.000000
vn 0.000000 0.000000 1.000000
vn 0.000000 -1.000000 0.000000
vn 0.000000 1.000000 0.000000
vn 1.000000 -0.000005 0.000000
vn -0.000000 -0.000005 1.000000
vn -1.000000 -0.000004 -0.000000
vn 0.000000 0.000005 -1.000000
vn 1.000000 0.000005 0.000001
vn -0.000001 0.000001 1.000000
vn -1.000000 -0.000002 -0.000000
vn 0.000000 0.000004 -1.000000
s off
f 5/1/1 6/2/1 1/3/1
f 6/1/2 7/2/2 2/3/2
f 7/1/3 8/2/3 3/3/3
f 8/1/4 5/2/4 4/3/4
f 1/1/5 2/2/5 4/3/5
f 8/1/6 7/2/6 5/3/6
f 9/1/5 10/2/5 12/3/5
f 13/1/6 16/2/6 14/3/6
f 9/1/7 13/2/7 10/3/7
f 10/1/8 14/2/8 11/3/8
f 11/1/9 15/2/9 12/3/9
f 13/1/10 9/2/10 16/3/10
f 21/1/1 22/2/1 17/3/1
f 22/1/2 23/2/2 18/3/2
f 23/1/3 24/2/3 19/3/3
f 24/1/4 21/2/4 20/3/4
f 17/1/5 18/2/5 20/3/5
f 24/1/6 23/2/6 21/3/6
f 29/1/1 30/2/1 25/3/1
f 30/1/2 31/2/2 26/3/2
f 31/1/3 32/2/3 27/3/3
f 32/1/4 29/2/4 28/3/4
f 25/1/5 26/2/5 28/3/5
f 32/1/6 31/2/6 29/3/6
f 37/1/1 38/2/1 33/3/1
f 38/1/2 39/2/2 34/3/2
f 39/1/3 40/2/3 35/3/3
f 40/1/4 37/2/4 36/3/4
f 33/1/5 34/2/5 36/3/5
f 40/1/6 39/2/6 37/3/6
f 6/2/1 2/4/1 1/3/1
f 7/2/2 3/4/2 2/3/2
f 8/2/3 4/4/3 3/3/3
f 5/2/4 1/4/4 4/3/4
f 2/2/5 3/4/5 4/3/5
f 7/2/6 6/4/6 5/3/6
f 10/2/5 11/4/5 12/3/5
f 16/2/6 15/4/6 14/3/6
f 13/2/11 14/4/11 10/3/11
f 14/2/12 15/4/12 11/3/12
f 15/2/13 16/4/13 12/3/13
f 9/2/14 12/4/14 16/3/14
f 22/2/1 18/4/1 17/3/1
f 23/2/2 19/4/2 18/3/2
f 24/2/3 20/4/3 19/3/3
f 21/2/4 17/4/4 20/3/4
f 18/2/5 19/4/5 20/3/5
f 23/2/6 22/4/6 21/3/6
f 30/2/1 26/4/1 25/3/1
f 31/2/2 27/4/2 26/3/2
f 32/2/3 28/4/3 27/3/3
f 29/2/4 25/4/4 28/3/4
f 26/2/5 27/4/5 28/3/5
f 31/2/6 30/4/6 29/3/6
f 38/2/1 34/4/1 33/3/1
f 39/2/2 35/4/2 34/3/2
f 40/2/3 36/4/3 35/3/3
f 37/2/4 33/4/4 36/3/4
f 34/2/5 35/4/5 36/3/5
f 39/2/6 38/4/6 37/3/6
